Coordinates
version=1
nRows=5
nColumns=40
inDegrees=yes

Units are S.I. units (second, meters, Newtons, ...)
If the header above contains a line with 'inDegrees', this indicates whether rotational values are in degrees (yes) or radians (no).

endheader
time	pelvis_tilt	pelvis_list	pelvis_rotation	pelvis_tx	pelvis_ty	pelvis_tz	hip_flexion_r	hip_adduction_r	hip_rotation_r	knee_angle_r	knee_angle_r_beta	ankle_angle_r	subtalar_angle_r	mtp_angle_r	hip_flexion_l	hip_adduction_l	hip_rotation_l	knee_angle_l	knee_angle_l_beta	ankle_angle_l	subtalar_angle_l	mtp_angle_l	lumbar_extension	lumbar_bending	lumbar_rotation	arm_flex_r	arm_add_r	arm_rot_r	elbow_flex_r	pro_sup_r	wrist_flex_r	wrist_dev_r	arm_flex_l	arm_add_l	arm_rot_l	elbow_flex_l	pro_sup_l	wrist_flex_l	wrist_dev_l
      4.62000000	     -6.91304455	      0.96507176	     -3.89534786	     -0.14716141	      1.32117790	     -0.87978817	      1.94164061	    -10.97382917	    -20.63587609	      4.47635793	      0.07812718	    -30.74225754	      0.00000000	      0.00000000	      0.66517210	    -15.65583576	    -23.50965025	     11.09025200	      0.19356141	    -31.94372250	      0.00000000	      0.00000000	     -4.14708839	      4.32364996	      0.72798549	    -47.58660566	    -50.66220274	     14.78337494	    108.18199078	     87.92159490	      0.00000000	      0.00000000	    -38.11758426	    -56.26801102	     22.52428715	    109.57469620	     87.87928277	      0.00000000	      0.00000000
      4.62500000	     -6.86660913	      0.97300382	     -3.90536670	     -0.14833192	      1.31339954	     -0.87996962	      2.28827236	    -11.16834654	    -20.60068132	      4.40788442	      0.07693210	    -30.64701929	      0.00000000	      0.00000000	      0.89663532	    -15.76932267	    -23.51039708	     11.02996185	      0.19250915	    -31.83214711	      0.00000000	      0.00000000	     -4.61349164	      4.40388745	      0.63918170	    -47.62412087	    -50.68692288	     14.81117209	    108.15472447	     87.77349654	      0.00000000	      0.00000000	    -38.10276854	    -56.29444767	     22.55639705	    109.56884019	     87.73329679	      0.00000000	      0.00000000
      4.63000000	     -7.11401592	      0.98759177	     -3.95780311	     -0.14938325	      1.30471916	     -0.88009932	      2.86266395	    -11.30983384	    -19.81056208	      4.18768236	      0.07308885	    -30.11721557	      0.00000000	      0.00000000	      1.46045467	    -15.90843842	    -23.55566166	     11.15365704	      0.19466804	    -30.79546441	      0.00000000	      0.00000000	     -4.67139243	      4.50255473	      0.62201990	    -47.82291119	    -50.78788551	     14.79195549	    108.26149206	     87.92714524	      0.00000000	      0.00000000	    -37.95914318	    -56.25242324	     22.87394159	    109.51309064	     87.88603295	      0.00000000	      0.00000000
      4.63500000	     -7.06130714	      0.99534821	     -3.93635760	     -0.15064979	      1.29641182	     -0.88038656	      3.20374347	    -11.51257548	    -19.77860651	      4.13030049	      0.07208734	    -30.02883764	      0.00000000	      0.00000000	      1.71484688	    -16.01394904	    -23.55215883	     11.09715467	      0.19368189	    -30.70681548	      0.00000000	      0.00000000	     -5.14603809	      4.58391543	      0.53965983	    -47.85842590	    -50.81286307	     14.81516824	    108.23951726	     87.77744307	      0.00000000	      0.00000000	    -37.94637706	    -56.27380445	     22.90313526	    109.50535862	     87.73766355	      0.00000000	      0.00000000
      4.64000000	     -7.44529370	      1.07776599	     -3.95552563	     -0.15222647	      1.28717031	     -0.88070880	      4.03630045	    -11.75915214	    -18.98694762	      4.08611439	      0.07131615	    -29.50670827	      0.00000000	      0.00000000	      2.53659795	    -16.09936145	    -23.46863910	     11.28435727	      0.19694919	    -29.69159734	      0.00000000	      0.00000000	     -5.08363108	      4.63901026	      0.58858670	    -48.21829953	    -50.79232130	     14.61013905	    108.34531248	     87.95247129	      0.00000000	      0.00000000	    -37.63331334	    -56.22145192	     23.27132260	    109.36115983	     87.90575170	      0.00000000	      0.00000000
